<?xml version="1.0" standalone="no"?>
<!DOCTYPE svg PUBLIC "-//W3C//DTD SVG 20010904//EN"
 "http://www.w3.org/TR/2001/REC-SVG-20010904/DTD/svg10.dtd">
<svg version="1.0" xmlns="http://www.w3.org/2000/svg"
 width="661.000000pt" height="661.000000pt" viewBox="0 0 661.000000 661.000000"
 preserveAspectRatio="xMidYMid meet">
<metadata>
Created by potrace 1.11, written by Peter Selinger 2001-2013
</metadata>
<g transform="translate(0.000000,661.000000) scale(0.100000,-0.100000)"
fill="#000000" stroke="none">
<path d="M3239 6491 c-219 -125 -325 -187 -327 -193 -2 -5 -8 -8 -13 -8 -5 0
-34 -15 -65 -32 -31 -18 -77 -45 -102 -60 -26 -15 -55 -30 -64 -34 -10 -3 -18
-10 -18 -15 0 -5 -7 -9 -15 -9 -8 0 -15 -4 -15 -10 0 -6 -3 -9 -7 -8 -12 3
-103 -45 -103 -54 0 -4 -7 -8 -15 -8 -8 0 -15 -5 -15 -12 0 -6 -3 -8 -6 -5 -4
4 -19 -2 -33 -11 -14 -10 -69 -42 -121 -72 -52 -29 -98 -58 -101 -63 -3 -5
-10 -9 -15 -9 -12 1 -117 -59 -125 -71 -3 -5 -8 -7 -10 -6 -4 3 -80 -38 -141
-77 -21 -13 -40 -24 -44 -24 -3 0 -20 -10 -37 -22 -18 -13 -34 -23 -37 -23 -3
-1 -24 -12 -47 -25 l-43 -25 0 -903 0 -903 78 43 c42 23 79 44 82 47 3 3 21
14 40 25 65 35 125 69 135 76 6 4 27 17 48 29 185 104 272 156 279 166 4 5 8
7 8 3 0 -3 41 18 90 48 50 30 95 54 100 54 6 0 10 5 10 10 0 6 4 10 10 10 16
0 190 102 190 111 0 5 3 8 8 7 12 -3 82 35 82 44 0 5 4 7 9 3 5 -3 16 0 23 7
8 7 29 21 48 32 82 44 127 70 152 87 14 11 31 19 36 19 6 0 12 3 14 8 2 4 31
22 66 40 l63 34 37 -20 c83 -44 107 -57 112 -62 3 -3 15 -11 28 -17 12 -7 32
-19 45 -25 12 -7 25 -17 29 -23 4 -5 8 -7 8 -3 0 4 25 -8 55 -27 30 -19 57
-35 60 -35 3 0 24 -12 48 -27 23 -15 45 -26 50 -25 4 1 7 -2 7 -6 0 -7 44 -34
60 -36 3 -1 20 -11 38 -24 17 -13 32 -21 32 -17 0 3 6 1 13 -5 18 -17 227
-139 227 -133 0 2 12 -5 26 -16 15 -11 30 -18 35 -15 5 3 9 0 9 -6 0 -6 14
-16 30 -21 17 -6 30 -15 30 -20 0 -5 4 -9 9 -9 5 0 54 -26 108 -58 54 -32 113
-65 131 -73 17 -7 32 -17 32 -21 0 -5 7 -8 15 -8 8 0 15 -4 15 -9 0 -5 7 -12
16 -15 10 -4 13 -2 8 7 -4 6 3 2 14 -10 12 -12 41 -31 64 -42 24 -12 57 -30
73 -40 17 -11 47 -29 68 -40 l37 -21 1 23 c1 29 1 1750 0 1758 -2 16 -42 49
-96 79 -59 33 -99 55 -146 82 -13 7 -26 15 -29 18 -5 5 -17 12 -89 52 -20 11
-42 25 -48 30 -7 6 -13 7 -13 2 0 -5 -4 -4 -8 2 -4 6 -27 21 -52 35 -25 13
-47 26 -50 29 -5 5 -67 40 -125 69 -16 9 -32 19 -35 22 -3 3 -25 16 -50 30
-25 13 -47 27 -48 32 -2 4 -8 5 -13 1 -5 -3 -9 -1 -9 4 0 8 -45 35 -62 36 -4
1 -13 7 -19 14 -7 6 -19 12 -26 12 -7 0 -13 5 -13 11 0 5 -4 8 -9 5 -5 -4 -11
-3 -13 2 -1 4 -39 29 -83 54 -44 25 -100 58 -125 73 -25 14 -53 28 -62 32 -10
3 -18 9 -18 13 0 5 -16 14 -35 20 -19 6 -35 16 -35 22 0 6 -3 9 -6 5 -3 -3
-15 3 -27 13 -11 11 -23 17 -27 15 -4 -3 -13 2 -20 10 -7 8 -19 15 -26 15 -8
0 -14 5 -14 12 0 6 -3 8 -6 5 -4 -4 -19 2 -33 12 -14 10 -44 27 -66 38 l-40
20 -46 -26z"/>
<path d="M2139 3768 c0 -7 -1 -282 -2 -610 -2 -448 1 -599 10 -602 25 -10 700
2 746 13 108 25 184 87 234 189 24 49 28 69 28 147 0 74 -4 98 -23 137 -29 58
-82 111 -139 138 -24 11 -43 23 -43 28 0 4 23 27 51 51 62 53 99 126 99 193 0
61 -18 145 -35 162 -8 7 -12 16 -10 18 8 8 -69 75 -115 100 -74 40 -151 48
-488 48 -243 0 -312 -3 -313 -12z m663 -212 c24 -12 41 -29 51 -53 17 -44 13
-118 -8 -139 -8 -9 -15 -19 -15 -24 0 -14 -68 -40 -117 -46 -74 -7 -309 -7
-322 0 -7 5 -11 55 -11 147 l0 140 193 -3 c160 -3 198 -6 229 -22z m-29 -476
c93 -20 137 -73 137 -166 0 -62 -31 -111 -85 -135 -35 -15 -73 -19 -238 -21
-107 -2 -198 -1 -201 2 -4 5 -8 149 -7 277 l1 52 43 3 c83 6 302 -1 350 -12z"/>
<path d="M3447 3773 c-4 -3 -7 -278 -7 -609 0 -575 1 -603 18 -608 22 -7 221
-3 223 4 1 3 2 84 3 180 2 161 4 178 24 210 12 19 22 31 22 27 0 -7 49 36 121
106 16 15 34 27 41 27 7 0 29 -29 48 -65 19 -36 39 -65 44 -65 5 0 7 -2 4 -6
-3 -3 23 -53 58 -110 35 -58 64 -109 64 -113 0 -4 9 -17 20 -29 12 -12 18 -22
15 -22 -7 0 57 -103 69 -112 6 -4 7 -8 2 -8 -5 0 -3 -6 3 -14 9 -11 45 -14
165 -13 l154 0 -20 39 c-11 21 -24 38 -30 38 -5 0 -7 4 -4 8 3 5 -4 18 -14 30
-11 12 -20 26 -20 32 0 5 -4 10 -10 10 -5 0 -10 4 -10 9 0 7 -77 128 -140 221
-5 8 -31 49 -57 90 -26 41 -51 77 -55 78 -4 2 -8 10 -8 18 0 8 -4 14 -10 14
-5 0 -10 7 -10 15 0 8 -4 15 -10 15 -5 0 -10 5 -10 10 0 6 -16 35 -36 65 -32
48 -35 57 -23 72 18 22 240 252 352 363 48 49 87 91 87 94 0 3 -71 6 -158 6
l-158 0 -105 -111 c-57 -62 -115 -124 -128 -138 -189 -208 -258 -281 -269
-281 -5 0 -8 114 -7 253 0 138 -1 258 -3 265 -3 9 -35 12 -116 12 -62 0 -116
-3 -119 -7z"/>
<path d="M1625 3700 c-27 -16 -66 -37 -85 -47 -70 -37 -185 -108 -188 -115 -2
-5 -7 -6 -12 -3 -5 3 -14 -1 -22 -8 -7 -7 -60 -39 -118 -72 -58 -32 -106 -62
-108 -67 -2 -4 -10 -8 -17 -8 -8 0 -34 -13 -58 -30 -25 -16 -50 -30 -55 -30
-6 0 -17 -6 -24 -13 -7 -7 -28 -21 -46 -30 -17 -9 -46 -24 -62 -33 -16 -8 -30
-20 -30 -25 0 -6 -4 -8 -9 -4 -5 3 -15 -1 -23 -8 -7 -7 -15 -13 -18 -13 -5 0
-25 -11 -75 -41 -11 -7 -35 -20 -53 -29 -17 -9 -32 -20 -32 -25 0 -5 -3 -8 -8
-7 -9 3 -72 -30 -94 -50 -10 -8 -18 -12 -18 -8 0 4 -12 -2 -26 -13 -15 -12
-33 -21 -40 -21 -8 0 -14 -4 -14 -8 0 -4 -22 -19 -50 -33 -27 -13 -50 -28 -50
-32 0 -5 -4 -5 -10 -2 -5 3 -10 1 -10 -4 0 -6 -7 -11 -15 -11 -8 0 -15 -4 -15
-10 0 -5 -3 -9 -7 -8 -13 3 -63 -25 -63 -34 0 -5 -4 -6 -10 -3 -5 3 -10 1 -10
-4 0 -6 -6 -11 -14 -11 -8 0 -16 -7 -20 -15 -3 -8 -5 -419 -5 -914 l0 -899 81
-46 c44 -25 84 -46 88 -46 5 0 10 -4 12 -8 1 -5 28 -22 58 -39 30 -16 79 -44
107 -61 29 -17 53 -29 53 -26 0 2 10 -4 22 -15 11 -11 25 -18 30 -15 4 3 8 2
8 -3 0 -4 26 -21 58 -38 31 -16 59 -33 62 -36 6 -7 52 -33 60 -34 3 0 20 -10
38 -23 17 -13 32 -20 32 -15 0 4 4 3 8 -2 4 -6 41 -30 82 -53 41 -24 82 -47
90 -52 61 -37 104 -60 111 -60 5 0 9 -4 9 -10 0 -5 4 -10 10 -10 5 0 47 -22
94 -50 47 -27 89 -50 95 -50 5 0 11 -4 13 -8 2 -5 28 -22 58 -39 30 -16 94
-53 142 -81 48 -29 91 -52 96 -52 5 0 15 -7 22 -15 23 -28 15 -31 309 139 62
36 117 66 122 66 5 0 9 5 9 10 0 6 7 10 15 10 8 0 15 4 15 10 0 5 3 9 8 8 4
-1 16 3 27 9 11 7 36 21 55 33 19 11 54 30 78 42 23 12 42 26 42 30 0 4 5 8
11 8 13 0 221 120 230 133 3 5 8 7 10 6 2 -2 36 15 74 38 39 22 85 49 104 59
18 11 41 24 50 29 9 6 46 27 83 48 37 21 70 43 74 48 3 5 9 7 13 5 4 -3 18 4
29 15 12 11 22 17 22 14 0 -4 12 2 28 12 15 10 44 28 65 38 20 11 37 23 37 28
0 4 4 6 8 3 5 -3 18 3 29 14 12 10 23 17 26 14 2 -3 7 1 10 9 5 13 -7 22 -123
83 -19 11 -37 22 -40 25 -3 4 -29 19 -58 34 -29 15 -55 31 -58 36 -3 5 -10 7
-15 4 -5 -4 -9 -2 -9 3 0 7 -49 35 -78 44 -4 1 -14 8 -22 15 -8 7 -19 13 -24
12 -5 0 -12 4 -15 9 -3 5 -55 37 -116 72 -60 34 -114 65 -120 69 -5 5 -35 22
-65 38 -30 17 -95 54 -145 83 -49 29 -108 62 -130 74 -22 12 -43 26 -47 31 -5
7 -8 7 -8 0 0 -6 -3 -6 -8 1 -9 14 -125 79 -134 76 -5 -1 -8 3 -8 8 0 6 -11
15 -23 19 -13 5 -53 27 -90 49 -36 23 -68 38 -71 35 -3 -4 -6 -2 -6 4 0 6 -15
18 -32 27 -18 9 -51 27 -73 40 l-40 23 0 906 c0 499 0 907 0 906 0 0 -22 -13
-50 -29z"/>
<path d="M4906 2833 c0 -494 -1 -904 -4 -910 -3 -11 -48 -38 -232 -144 -14 -8
-28 -18 -32 -24 -4 -5 -8 -6 -8 -2 0 5 -12 0 -27 -11 -16 -10 -71 -43 -123
-72 -52 -30 -97 -56 -100 -60 -3 -3 -21 -14 -40 -23 -19 -10 -53 -29 -75 -43
-22 -14 -48 -27 -57 -31 -10 -3 -18 -10 -18 -16 0 -6 -3 -8 -6 -4 -3 3 -30
-10 -59 -29 -30 -19 -57 -34 -60 -34 -4 0 -21 -10 -38 -22 -18 -13 -34 -23
-37 -23 -10 -1 -105 -59 -112 -70 -4 -5 -8 -6 -8 -1 0 5 -8 3 -17 -6 -10 -8
-30 -19 -45 -26 -16 -6 -28 -15 -28 -20 0 -5 -6 -9 -13 -9 -7 0 -38 -16 -68
-35 -31 -20 -65 -39 -77 -42 -12 -4 -22 -12 -22 -17 0 -6 -4 -7 -10 -4 -5 3
-10 2 -10 -3 0 -5 -8 -12 -17 -15 -10 -4 -36 -17 -58 -31 -38 -24 -93 -55
-142 -80 -13 -6 -23 -13 -23 -16 0 -3 21 -17 48 -30 26 -14 49 -28 50 -32 2
-5 10 -8 17 -8 8 0 20 -6 27 -13 7 -7 42 -29 78 -48 36 -18 68 -38 72 -44 5
-7 8 -7 8 0 0 6 3 5 8 -1 6 -11 29 -24 133 -81 22 -12 52 -30 67 -40 15 -9 29
-18 32 -18 3 0 24 -13 47 -28 24 -15 45 -27 48 -27 4 0 26 -13 49 -30 24 -16
46 -26 50 -23 3 4 6 1 6 -6 0 -7 4 -10 9 -6 6 3 14 -3 20 -12 6 -10 11 -14 11
-10 0 5 12 0 28 -10 48 -32 66 -43 92 -55 14 -7 28 -17 32 -23 5 -6 8 -6 8 0
0 6 3 6 8 -1 4 -6 34 -26 67 -45 33 -18 74 -42 90 -51 17 -10 41 -24 55 -30
14 -7 28 -17 32 -23 4 -5 8 -7 8 -3 0 4 9 0 20 -10 12 -9 24 -17 28 -17 4 -1
25 -12 47 -26 22 -14 65 -39 95 -55 30 -16 60 -35 68 -42 7 -6 20 -12 28 -12
8 0 14 -5 14 -11 0 -5 5 -7 10 -4 6 3 10 2 10 -4 0 -5 9 -12 19 -16 19 -6 35
1 136 58 22 13 56 32 75 42 19 11 37 22 40 25 3 3 16 11 30 18 14 6 32 16 40
22 42 28 172 100 180 100 6 0 10 5 10 10 0 6 6 10 14 10 8 0 21 6 28 12 7 7
35 24 61 38 26 13 47 28 47 32 0 5 3 7 8 6 8 -3 118 58 142 78 8 7 18 13 23
13 6 1 45 22 127 71 136 80 172 100 180 100 6 0 10 5 10 10 0 6 4 10 9 10 10
0 348 193 367 209 7 5 14 7 18 4 3 -3 8 2 12 11 3 9 10 13 15 11 5 -3 11 4 14
17 3 13 4 425 3 917 l-3 894 -116 66 c-64 37 -123 72 -131 79 -8 6 -18 9 -21
5 -4 -3 -7 -1 -7 6 0 7 -4 10 -9 7 -5 -4 -11 -2 -13 2 -1 5 -23 20 -48 34 -83
46 -220 125 -240 138 -31 20 -95 53 -99 51 -2 -2 -7 1 -10 6 -9 13 -147 93
-160 93 -6 0 -11 5 -11 10 0 6 -4 10 -8 10 -5 0 -49 24 -97 53 -49 28 -91 51
-92 49 -2 -1 -9 2 -16 8 -14 13 -79 54 -87 55 -3 0 -39 20 -80 45 -41 24 -77
43 -79 41 -2 -1 -7 1 -10 6 -8 12 -113 72 -125 71 -5 0 -13 7 -18 16 -5 9 -16
16 -24 16 -9 0 -22 7 -30 15 -9 8 -18 15 -22 15 -4 0 -7 -404 -6 -897z"/>
<path d="M3808 2385 c-2 -2 -17 -5 -34 -8 -67 -10 -127 -61 -153 -130 -16 -41
-20 -121 -10 -164 5 -21 11 -46 14 -56 2 -9 11 -24 19 -33 9 -8 19 -21 23 -28
17 -29 94 -57 146 -55 65 3 95 13 123 44 59 64 69 99 30 109 -13 3 -31 8 -39
12 -10 3 -17 -3 -20 -19 -6 -23 -40 -69 -51 -68 -3 0 -13 -2 -21 -5 -27 -11
-84 6 -103 31 -11 13 -21 23 -23 21 -9 -9 -16 164 -8 194 2 8 16 27 30 43 20
23 37 30 72 33 26 2 49 -1 52 -6 4 -6 10 -8 15 -5 4 2 13 -8 20 -25 7 -16 19
-30 28 -32 28 -6 63 4 69 19 7 18 -34 77 -67 97 -25 14 -106 37 -112 31z"/>
<path d="M2147 2368 c-9 -4 -14 -16 -12 -26 2 -9 4 -23 4 -30 1 -9 18 -12 61
-11 33 1 63 -1 67 -4 4 -4 7 -88 7 -188 1 -196 3 -204 58 -196 l23 4 1 186 c0
103 4 190 8 194 4 4 34 7 66 7 33 -1 60 2 61 5 0 3 2 14 4 25 8 40 0 42 -170
42 -90 0 -170 -3 -178 -8z"/>
<path d="M2591 2370 c-9 -6 -8 -436 1 -445 12 -12 68 -13 75 -2 3 5 6 45 6 88
l0 79 56 1 c125 3 160 18 189 82 35 79 -9 179 -84 193 -38 7 -234 11 -243 4z
m237 -90 c30 -28 28 -66 -4 -95 -23 -21 -37 -25 -90 -25 l-64 0 0 70 0 70 68
0 c55 0 73 -4 90 -20z"/>
<path d="M3143 2367 c-13 -19 -11 -430 1 -442 14 -14 59 -14 69 -1 4 6 7 45 6
86 0 41 0 83 0 93 1 15 11 17 94 15 l92 -3 1 -93 c1 -51 3 -95 6 -97 10 -10
69 -12 75 -2 7 12 8 436 0 444 -13 12 -68 12 -72 0 -2 -6 -5 -48 -7 -92 l-3
-80 -92 -3 c-106 -3 -95 -15 -94 105 0 36 -5 65 -11 69 -20 12 -58 13 -65 1z"/>
<path d="M4114 2368 c-3 -4 -5 -90 -5 -190 -1 -273 -3 -255 25 -262 50 -13 52
-7 52 159 -1 97 3 155 9 155 8 0 58 -178 79 -278 4 -18 20 -32 45 -37 33 -6
48 3 55 36 3 16 6 30 6 32 1 1 14 51 29 112 16 60 34 111 40 113 12 4 12 8 14
-168 l2 -124 32 -3 c18 -2 35 2 39 8 5 8 8 332 5 434 -1 18 -8 20 -59 20 -62
0 -86 -10 -78 -31 3 -7 2 -16 -3 -18 -4 -3 -14 -31 -21 -63 -8 -32 -14 -60
-15 -63 -1 -3 -7 -31 -15 -62 -16 -68 -34 -77 -45 -20 -1 9 -8 37 -15 62 -14
50 -14 50 -25 103 -4 20 -11 40 -16 42 -4 3 -6 12 -3 19 3 8 -1 18 -8 22 -17
11 -118 13 -124 2z"/>
<path d="M2949 1998 c-6 -22 -7 -78 -1 -79 4 0 18 -2 30 -3 34 -4 52 18 43 51
-6 22 -14 29 -39 31 -18 2 -32 2 -33 0z"/>
</g>
</svg>
